<svg stroke="currentColor" viewBox="0 0 37 37" fill="none" xmlns="http://www.w3.org/2000/svg">
  <path d="M26.6285 10.6864H24.6056V10.3206C24.6056 9.59238 24.0246 9 23.3108 9C22.5947 9 22.0123 9.59263 22.0123 10.3206V10.6864H19.7936V10.3206C19.7936 9.59238 19.212 9 18.4972 9C17.7813 9 17.1989 9.59263 17.1989 10.3206V10.6864H14.9802V10.3206C14.9802 9.59238 14.3986 9 13.6837 9C12.9687 9 12.387 9.59263 12.387 10.3206V10.6864H10.3713C10.1661 10.6864 10 10.8558 10 11.0645V27.6219C10 27.8306 10.1661 28 10.3713 28H26.6287C26.8339 28 27 27.8306 27 27.6219V11.0645C26.9998 10.8558 26.8337 10.6864 26.6285 10.6864ZM22.7546 10.3206C22.7546 10.0096 23.0041 9.75623 23.3106 9.75623C23.615 9.75623 23.8628 10.0096 23.8628 10.3206V12.0826C23.8628 12.394 23.615 12.6473 23.3106 12.6473C23.0041 12.6473 22.7546 12.394 22.7546 12.0826V10.3206ZM17.9415 10.3206C17.9415 10.0096 18.1907 9.75623 18.4972 9.75623C18.8026 9.75623 19.0511 10.0096 19.0511 10.3206V12.0826C19.0511 12.394 18.8026 12.6473 18.4972 12.6473C18.1907 12.6473 17.9415 12.394 17.9415 12.0826V10.3206ZM13.1296 10.3206C13.1296 10.0096 13.3781 9.75623 13.6837 9.75623C13.9892 9.75623 14.2377 10.0096 14.2377 10.3206V12.0826C14.2377 12.394 13.9892 12.6473 13.6837 12.6473C13.3783 12.6473 13.1296 12.394 13.1296 12.0826V10.3206ZM26.2572 27.2435H10.7423V11.4424H12.3868V12.0824C12.3868 12.8109 12.9684 13.4033 13.6835 13.4033C14.3983 13.4033 14.98 12.8106 14.98 12.0824V11.4424H17.1987V12.0824C17.1987 12.8109 17.7811 13.4033 18.4969 13.4033C19.2117 13.4033 19.7934 12.8106 19.7934 12.0824V11.4424H22.0121V12.0824C22.0121 12.8109 22.5947 13.4033 23.3106 13.4033C24.0246 13.4033 24.6053 12.8106 24.6053 12.0824V11.4424H26.257V27.2435H26.2572Z" fill="black" />
  <path d="M25.1036 16.0716C24.8617 15.8864 24.5149 15.9317 24.3294 16.1747L17.4341 25.185L12.8682 19.5706C12.676 19.3338 12.3278 19.2981 12.0914 19.4903C11.8547 19.6829 11.819 20.0308 12.0115 20.2671L17.0189 26.425C17.1238 26.5542 17.281 26.6289 17.4474 26.6289C17.45 26.6289 17.4529 26.6289 17.4555 26.6289C17.6245 26.6263 17.7831 26.5464 17.8859 26.4121L25.2067 16.8458C25.3919 16.6039 25.3459 16.2571 25.1036 16.0716Z" fill="black" />
</svg>