<svg viewBox="0 0 236 236" fill="none" xmlns="http://www.w3.org/2000/svg" style="">
  <style type="text/css">.dark{fill:var(--white);}</style>
  <path d="M196.133 38.9636C196.208 39.2454 196.28 39.5283 196.348 39.8121C197.585 44.8233 197.825 50.0292 197.053 55.1331C196.855 56.4416 196.59 57.7388 196.258 59.0196C195.357 62.5041 193.987 65.8497 192.184 68.9642L177.222 94.8791C176.436 96.2348 175.145 97.2233 173.631 97.6281C172.118 98.0323 170.505 97.8195 169.149 97.0362C167.792 96.2528 166.801 94.9631 166.395 93.45C165.988 91.9369 166.199 90.3242 166.98 88.9663L181.942 63.0514C181.987 62.9741 182.031 62.8969 182.072 62.8206C185.506 56.77 186.523 49.6441 184.919 42.8743C184.855 42.5894 184.784 42.3066 184.708 42.0248C184.475 41.1565 184.204 40.3068 183.894 39.4755C181.642 33.4566 177.366 28.409 171.799 25.1982C171.283 24.8999 170.763 24.6189 170.232 24.361C164.196 21.3748 157.278 20.6892 150.773 22.4323C144.267 24.1755 138.62 28.2279 134.885 33.8323C134.555 34.3208 134.245 34.8243 133.946 35.3409L99.6511 94.7419C95.9857 101.109 94.9952 108.669 96.8967 115.765C98.7981 122.862 103.436 128.914 109.794 132.595C111.152 133.379 112.143 134.671 112.549 136.185C112.955 137.7 112.742 139.314 111.958 140.672C111.174 142.03 109.883 143.021 108.368 143.427C106.853 143.833 105.239 143.621 103.881 142.836C94.8091 137.585 88.1908 128.95 85.4779 118.825C82.7649 108.7 84.1788 97.9126 89.4097 88.829L123.705 29.4281C126.691 24.2687 130.804 19.8504 135.736 16.5033C140.669 13.156 146.294 10.9663 152.191 10.0976C158.089 9.22881 164.106 9.70355 169.795 11.4861C175.483 13.2688 180.695 16.3135 185.042 20.3927C186.031 21.3153 186.969 22.2901 187.853 23.3129C191.177 27.1502 193.725 31.5965 195.353 36.4052C195.64 37.2467 195.9 38.0995 196.133 38.9636Z" class="dark" />
  <path d="M163.582 46.9591C163.719 47.4706 163.804 47.9945 163.837 48.5232C163.947 50.3375 163.426 52.1341 162.364 53.6086C161.301 55.0835 159.762 56.1458 158.006 56.6162C156.25 57.0866 154.386 56.9364 152.728 56.1904C151.071 55.4447 149.722 54.1491 148.909 52.5231C148.376 51.4501 148.092 50.2705 148.079 49.0723C148.059 47.1519 148.741 45.2904 149.997 43.8371C151.253 42.384 152.995 41.439 154.898 41.1796C156.801 40.9202 158.733 41.3642 160.332 42.4284C161.931 43.4925 163.086 45.1035 163.582 46.9591Z" class="dark" />
  <path d="M118.651 38.1822L134.885 33.8323C134.555 34.3208 134.245 34.8242 133.946 35.3409L132.296 38.1994L116.142 42.5279L118.651 38.1822Z" fill="#F9A826" />
  <path d="M187.853 23.3129L174.418 26.9128C173.578 26.2923 172.704 25.7198 171.799 25.1982C171.283 24.8999 170.763 24.6189 170.232 24.361L185.042 20.3927C186.031 21.3153 186.969 22.2901 187.853 23.3129Z" fill="#F9A826" />
  <path d="M105.827 60.3937L121.981 56.0651L119.472 60.4108L103.318 64.7394L105.827 60.3937Z" fill="#F9A826" />
  <path d="M162.831 45.1193C163.419 46.1637 163.763 47.3273 163.837 48.5232L148.909 52.5232C148.376 51.4502 148.092 50.2706 148.079 49.0724L162.831 45.1193Z" fill="#F9A826" />
  <path d="M196.133 38.9636C196.208 39.2455 196.28 39.5283 196.348 39.8121L184.919 42.8743C184.855 42.5895 184.784 42.3066 184.708 42.0248C184.475 41.1566 184.204 40.3068 183.894 39.4756L195.353 36.4052C195.64 37.2467 195.9 38.0995 196.133 38.9636Z" fill="#F9A826" />
  <path d="M92.7243 83.0878L108.879 78.7593L106.37 83.105L90.2154 87.4336L92.7243 83.0878Z" fill="#F9A826" />
  <path d="M197.053 55.1331C196.855 56.4415 196.59 57.7388 196.258 59.0196L182.072 62.8206C182.834 61.4802 183.481 60.0783 184.006 58.629L197.053 55.1331Z" fill="#F9A826" />
  <path d="M153.89 76.5332C153.918 76.6364 153.944 76.74 153.969 76.844C154.422 78.6791 154.51 80.5856 154.228 82.4547C154.155 82.9339 154.058 83.4089 153.936 83.878C153.607 85.154 153.105 86.3793 152.444 87.5198L146.965 97.0102C146.677 97.5067 146.205 97.8687 145.65 98.0169C145.096 98.1649 144.506 98.087 144.009 97.8001C143.512 97.5132 143.149 97.0409 143 96.4868C142.851 95.9327 142.928 95.3421 143.215 94.8448L148.694 85.3545C148.71 85.3262 148.726 85.2979 148.741 85.27C149.999 83.0542 150.371 80.4446 149.784 77.9654C149.761 77.8611 149.734 77.7575 149.707 77.6543C149.621 77.3363 149.522 77.0251 149.409 76.7207C148.584 74.5165 147.018 72.668 144.979 71.4922C144.79 71.3829 144.6 71.28 144.406 71.1856C142.195 70.092 139.662 69.8409 137.279 70.4793C134.897 71.1177 132.829 72.6017 131.461 74.6541C131.34 74.833 131.226 75.0174 131.117 75.2066L118.558 96.9599C117.216 99.2916 116.853 102.06 117.549 104.659C118.245 107.258 119.944 109.474 122.272 110.822C122.77 111.109 123.132 111.582 123.281 112.137C123.43 112.692 123.352 113.283 123.065 113.78C122.778 114.278 122.305 114.64 121.75 114.789C121.195 114.938 120.604 114.86 120.107 114.573C116.785 112.65 114.361 109.487 113.367 105.779C112.374 102.072 112.892 98.1211 114.807 94.7946L127.367 73.0412C128.46 71.1518 129.966 69.5338 131.773 68.308C133.579 67.0822 135.639 66.2803 137.799 65.9622C139.959 65.644 142.162 65.8178 144.245 66.4707C146.328 67.1235 148.237 68.2385 149.829 69.7323C150.191 70.0702 150.535 70.4272 150.859 70.8018C152.076 72.207 153.009 73.8353 153.605 75.5963C153.71 75.9045 153.805 76.2168 153.89 76.5332Z" class="dark" />
  <path d="M141.97 79.4613C142.02 79.6487 142.051 79.8405 142.063 80.0341C142.104 80.6985 141.913 81.3565 141.524 81.8964C141.135 82.4366 140.571 82.8256 139.928 82.9979C139.285 83.1701 138.602 83.1151 137.995 82.8419C137.388 82.5688 136.894 82.0944 136.597 81.4989C136.401 81.106 136.297 80.674 136.292 80.2352C136.285 79.5319 136.535 78.8502 136.995 78.318C137.455 77.7859 138.093 77.4398 138.79 77.3448C139.487 77.2498 140.194 77.4124 140.78 77.8021C141.365 78.1918 141.788 78.7818 141.97 79.4613Z" class="dark" />
  <path d="M125.516 76.247L131.461 74.654C131.34 74.8329 131.226 75.0173 131.117 75.2065L130.513 76.2533L124.597 77.8385L125.516 76.247Z" fill="#F9A826" />
  <path d="M150.858 70.8017L145.938 72.1201C145.631 71.8928 145.311 71.6832 144.979 71.4921C144.79 71.3829 144.6 71.28 144.405 71.1855L149.829 69.7323C150.191 70.0702 150.535 70.4272 150.858 70.8017Z" fill="#F9A826" />
  <path d="M120.819 84.3812L126.735 82.796L125.817 84.3875L119.901 85.9726L120.819 84.3812Z" fill="#F9A826" />
  <path d="M141.695 78.7875C141.91 79.17 142.036 79.5961 142.064 80.0341L136.597 81.4989C136.401 81.106 136.297 80.674 136.292 80.2352L141.695 78.7875Z" fill="#F9A826" />
  <path d="M153.891 76.5332C153.918 76.6364 153.944 76.74 153.969 76.8439L149.784 77.9653C149.761 77.861 149.734 77.7575 149.707 77.6543C149.622 77.3363 149.522 77.0251 149.409 76.7207L153.605 75.5963C153.71 75.9044 153.805 76.2167 153.891 76.5332Z" fill="#F9A826" />
  <path d="M116.021 92.6921L121.937 91.1069L121.018 92.6984L115.102 94.2835L116.021 92.6921Z" fill="#F9A826" />
  <path d="M154.227 82.4547C154.155 82.9339 154.058 83.4089 153.936 83.878L148.741 85.27C149.02 84.7791 149.257 84.2657 149.45 83.7349L154.227 82.4547Z" fill="#F9A826" />
  <path d="M85.2188 161.88C85.1911 161.777 85.1649 161.673 85.14 161.569C84.6868 159.734 84.599 157.827 84.8817 155.958C84.9541 155.479 85.0513 155.004 85.173 154.535C85.5026 153.259 86.0047 152.034 86.6649 150.893L92.1442 141.403C92.4318 140.906 92.9047 140.544 93.459 140.396C94.0132 140.248 94.6037 140.326 95.1006 140.613C95.5975 140.9 95.9602 141.372 96.1091 141.926C96.2579 142.48 96.1809 143.071 95.8947 143.568L90.4155 153.059C90.3991 153.087 90.3828 153.115 90.3678 153.143C89.1104 155.359 88.7379 157.968 89.3252 160.448C89.3487 160.552 89.3749 160.655 89.4026 160.759C89.4878 161.077 89.5871 161.388 89.7006 161.692C90.5252 163.896 92.0912 165.745 94.1298 166.921C94.3191 167.03 94.5096 167.133 94.7038 167.227C96.9144 168.321 99.4476 168.572 101.83 167.934C104.212 167.295 106.281 165.811 107.648 163.759C107.769 163.58 107.883 163.396 107.992 163.206L120.551 141.453C121.894 139.121 122.256 136.353 121.56 133.754C120.864 131.155 119.165 128.939 116.837 127.591C116.34 127.304 115.977 126.831 115.828 126.276C115.679 125.721 115.757 125.13 116.044 124.633C116.332 124.135 116.805 123.773 117.359 123.624C117.914 123.475 118.505 123.553 119.002 123.84C122.325 125.763 124.748 128.926 125.742 132.634C126.735 136.341 126.218 140.292 124.302 143.618L111.743 165.372C110.649 167.261 109.143 168.879 107.337 170.105C105.53 171.331 103.47 172.133 101.311 172.451C99.1507 172.769 96.9471 172.595 94.8639 171.942C92.7808 171.289 90.8721 170.175 89.2802 168.681C88.9182 168.343 88.5746 167.986 88.2508 167.611C87.0334 166.206 86.1006 164.578 85.5042 162.817C85.3992 162.509 85.304 162.196 85.2188 161.88Z" class="dark" />
  <path d="M97.1394 158.952C97.0892 158.764 97.0579 158.572 97.0458 158.379C97.0057 157.714 97.1963 157.057 97.5854 156.517C97.9746 155.976 98.5384 155.587 99.1813 155.415C99.8242 155.243 100.507 155.298 101.114 155.571C101.721 155.844 102.215 156.319 102.513 156.914C102.708 157.307 102.812 157.739 102.817 158.178C102.824 158.881 102.574 159.563 102.114 160.095C101.654 160.627 101.016 160.973 100.319 161.068C99.6225 161.163 98.9149 161.001 98.3294 160.611C97.7439 160.221 97.3208 159.631 97.1394 158.952Z" class="dark" />
  <path d="M113.593 162.166L107.648 163.759C107.769 163.58 107.883 163.396 107.992 163.206L108.596 162.16L114.512 160.574L113.593 162.166Z" fill="#F9A826" />
  <path d="M88.2508 167.611L93.171 166.293C93.4785 166.52 93.7986 166.73 94.1299 166.921C94.3191 167.03 94.5096 167.133 94.7039 167.227L89.2803 168.681C88.9183 168.343 88.5747 167.986 88.2508 167.611Z" fill="#F9A826" />
  <path d="M118.29 154.032L112.374 155.617L113.293 154.026L119.209 152.44L118.29 154.032Z" fill="#F9A826" />
  <path d="M97.4141 159.625C97.1989 159.243 97.0731 158.817 97.0457 158.379L102.513 156.914C102.708 157.307 102.812 157.739 102.817 158.178L97.4141 159.625Z" fill="#F9A826" />
  <path d="M85.2188 161.88C85.1911 161.777 85.1649 161.673 85.14 161.569L89.3252 160.448C89.3487 160.552 89.3749 160.656 89.4026 160.759C89.4878 161.077 89.5872 161.388 89.7006 161.692L85.5042 162.817C85.3992 162.509 85.304 162.196 85.2188 161.88Z" fill="#F9A826" />
  <path d="M123.088 145.721L117.172 147.306L118.091 145.715L124.007 144.129L123.088 145.721Z" fill="#F9A826" />
  <path d="M84.8818 155.958C84.9541 155.479 85.0514 155.004 85.173 154.535L90.3679 153.143C90.089 153.634 89.8521 154.147 89.6597 154.678L84.8818 155.958Z" fill="#F9A826" />
  <path d="M146.626 147.873L112.33 207.274C107.087 216.354 98.4518 222.98 88.3236 225.694C78.1954 228.408 67.4039 226.987 58.323 221.745C57.5214 221.282 56.7376 220.794 55.9792 220.279C54.7336 219.445 53.5381 218.539 52.3989 217.565C48.2295 214.023 44.853 209.644 42.4893 204.71C41.9692 203.637 41.4993 202.539 41.0797 201.414C40.6321 200.216 40.2397 198.99 39.9028 197.738C38.9606 194.235 38.5028 190.62 38.5419 186.993C38.5544 185.744 38.6278 184.5 38.7622 183.26C39.3571 177.787 41.0908 172.5 43.8517 167.737L58.8137 141.822C59.5978 140.464 60.8892 139.473 62.404 139.067C63.9188 138.661 65.5325 138.874 66.8908 139.658C68.2491 140.442 69.2399 141.734 69.6459 143.248C70.0518 144.763 69.8393 146.377 69.0551 147.735L54.0931 173.65C52.9619 175.606 52.0722 177.692 51.4434 179.862C50.0509 184.697 50.0107 189.821 51.3273 194.677C51.6614 195.922 52.0801 197.144 52.5804 198.333C53.0494 199.447 53.5929 200.529 54.2071 201.57C56.6636 205.747 60.1728 209.207 64.3844 211.604C68.5959 214 73.3625 215.25 78.2084 215.23C83.0541 215.208 87.8095 213.917 92.0001 211.483C96.1905 209.049 99.6691 205.559 102.089 201.361L110.709 186.431L126.042 159.874L136.384 141.96C139.633 136.315 140.793 129.707 139.662 123.294C138.53 116.88 135.179 111.068 130.196 106.875C129.014 105.859 128.282 104.419 128.157 102.865C128.032 101.312 128.525 99.7727 129.528 98.5806C130.532 97.3888 131.965 96.6411 133.517 96.4996C135.068 96.3581 136.613 96.8348 137.815 97.8257C144.92 103.81 149.695 112.102 151.305 121.25C152.915 130.398 151.259 139.822 146.626 147.873Z" class="dark" />
  <path d="M82.1584 192.448C82.2954 192.96 82.3811 193.484 82.4142 194.012C82.5236 195.827 82.003 197.623 80.9404 199.098C79.8779 200.573 78.3385 201.635 76.5828 202.105C74.8272 202.576 72.9629 202.425 71.3052 201.679C69.6477 200.934 68.2986 199.638 67.4862 198.012C66.9529 196.939 66.6689 195.759 66.6554 194.561C66.6359 192.641 67.318 190.779 68.5737 189.326C69.8293 187.873 71.5722 186.928 73.4751 186.669C75.378 186.409 77.3102 186.853 78.9089 187.917C80.5079 188.982 81.6632 190.593 82.1584 192.448Z" class="dark" />
  <path d="M51.4433 179.862C51.0756 181.139 50.8009 182.44 50.6213 183.756L38.5418 186.993C38.5543 185.744 38.6277 184.5 38.7621 183.26L51.4433 179.862Z" fill="#F9A826" />
  <path d="M142.196 155.545L139.687 159.891L123.532 164.219L126.041 159.874L142.196 155.545Z" fill="#F9A826" />
  <path d="M54.2069 201.57L42.4892 204.71C41.9691 203.637 41.4992 202.539 41.0796 201.414L52.5803 198.333C53.0493 199.447 53.5928 200.529 54.2069 201.57Z" fill="#F9A826" />
  <path d="M82.1583 192.448C82.2953 192.96 82.381 193.484 82.4141 194.012L67.4861 198.012C66.9528 196.939 66.6687 195.759 66.6553 194.561L81.4082 190.608C81.7341 191.188 81.9862 191.806 82.1583 192.448Z" fill="#F9A826" />
  <path d="M129.372 177.757L126.863 182.102L110.709 186.431L113.218 182.085L129.372 177.757Z" fill="#F9A826" />
  <path d="M75.3436 215.09L55.9791 220.279C54.7334 219.445 53.5379 218.539 52.3988 217.565L68.1037 213.357C70.4269 214.261 72.8627 214.844 75.3436 215.09Z" fill="#F9A826" />
  <path d="M116.27 200.451L113.761 204.796L94.2627 210.021C96.2883 208.567 98.1058 206.844 99.6659 204.9L116.27 200.451Z" fill="#F9A826" />
</svg>