<svg id="moon" viewBox="0 0 614 558" fill="nonr" xmlns="http://www.w3.org/2000/svg">
  <path d="M0 0H613.308V0.00051367C613.308 67.8261 600.166 134.988 574.632 197.65C549.098 260.313 511.672 317.25 464.492 365.21C417.311 413.17 361.3 451.214 299.656 477.169C238.011 503.125 171.941 516.484 105.218 516.484H0V0Z" fill="#F2F2F2" />
  <path d="M451.923 176.131C479.404 176.131 501.682 153.485 501.682 125.55C501.682 97.6148 479.404 74.9689 451.923 74.9689C424.442 74.9689 402.164 97.6148 402.164 125.55C402.164 153.485 424.442 176.131 451.923 176.131Z" fill="#F2F2F2" />
  <path d="M299.091 27.2782C301.447 27.2782 303.356 25.3371 303.356 22.9426C303.356 20.5482 301.447 18.6071 299.091 18.6071C296.736 18.6071 294.826 20.5482 294.826 22.9426C294.826 25.3371 296.736 27.2782 299.091 27.2782Z" fill="#FF6584" />
  <path d="M437.706 317.758C440.061 317.758 441.971 315.817 441.971 313.422C441.971 311.028 440.061 309.087 437.706 309.087C435.35 309.087 433.441 311.028 433.441 313.422C433.441 315.817 435.35 317.758 437.706 317.758Z" fill="#FF6584" />
  <path d="M451.923 27.2782C454.278 27.2782 456.188 25.3371 456.188 22.9426C456.188 20.5482 454.278 18.6071 451.923 18.6071C449.567 18.6071 447.658 20.5482 447.658 22.9426C447.658 25.3371 449.567 27.2782 451.923 27.2782Z" fill="#F2F2F2" />
  <path d="M511.633 236.106C513.989 236.106 515.898 234.165 515.898 231.77C515.898 229.376 513.989 227.435 511.633 227.435C509.278 227.435 507.368 229.376 507.368 231.77C507.368 234.165 509.278 236.106 511.633 236.106Z" fill="#F2F2F2" />
  <path d="M341.742 144.337C344.098 144.337 346.007 142.396 346.007 140.002C346.007 137.607 344.098 135.666 341.742 135.666C339.386 135.666 337.477 137.607 337.477 140.002C337.477 142.396 339.386 144.337 341.742 144.337Z" fill="#F2F2F2" />
  <path d="M116.405 115.434C118.76 115.434 120.67 113.493 120.67 111.098C120.67 108.704 118.76 106.763 116.405 106.763C114.049 106.763 112.14 108.704 112.14 111.098C112.14 113.493 114.049 115.434 116.405 115.434Z" fill="#F2F2F2" />
  <path d="M196.73 438.43C276.818 438.43 341.742 372.433 341.742 291.022C341.742 209.611 276.818 143.615 196.73 143.615C116.642 143.615 51.718 209.611 51.718 291.022C51.718 372.433 116.642 438.43 196.73 438.43Z" fill="#F9A826" />
  <path opacity="0.2" d="M190.332 252.725C202.11 252.725 211.658 243.02 211.658 231.048C211.658 219.075 202.11 209.37 190.332 209.37C178.555 209.37 169.007 219.075 169.007 231.048C169.007 243.02 178.555 252.725 190.332 252.725Z" fill="black" />
  <path opacity="0.2" d="M190.332 413.862C210.747 413.862 227.296 397.039 227.296 376.288C227.296 355.536 210.747 338.713 190.332 338.713C169.918 338.713 153.369 355.536 153.369 376.288C153.369 397.039 169.918 413.862 190.332 413.862Z" fill="black" />
  <path opacity="0.2" d="M82.9952 328.597C88.0988 328.597 92.2361 324.391 92.2361 319.203C92.2361 314.015 88.0988 309.81 82.9952 309.81C77.8915 309.81 73.7542 314.015 73.7542 319.203C73.7542 324.391 77.8915 328.597 82.9952 328.597Z" fill="black" />
  <path opacity="0.2" d="M447.594 104.453C450.307 104.453 452.507 102.217 452.507 99.4594C452.507 96.7015 450.307 94.4658 447.594 94.4658C444.881 94.4658 442.682 96.7015 442.682 99.4594C442.682 102.217 444.881 104.453 447.594 104.453Z" fill="black" />
  <path opacity="0.2" d="M239.317 203.447C242.03 203.447 244.23 201.212 244.23 198.454C244.23 195.696 242.03 193.46 239.317 193.46C236.604 193.46 234.405 195.696 234.405 198.454C234.405 201.212 236.604 203.447 239.317 203.447Z" fill="black" />
  <path opacity="0.2" d="M183.935 304.029C187.468 304.029 190.332 301.117 190.332 297.526C190.332 293.934 187.468 291.022 183.935 291.022C180.402 291.022 177.537 293.934 177.537 297.526C177.537 301.117 180.402 304.029 183.935 304.029Z" fill="black" />
  <path opacity="0.2" d="M435.637 144.35C438.35 144.35 440.549 142.114 440.549 139.357C440.549 136.599 438.35 134.363 435.637 134.363C432.924 134.363 430.724 136.599 430.724 139.357C430.724 142.114 432.924 144.35 435.637 144.35Z" fill="black" />
  <path opacity="0.2" d="M303.42 267.19C306.133 267.19 308.332 264.954 308.332 262.196C308.332 259.438 306.133 257.203 303.42 257.203C300.707 257.203 298.508 259.438 298.508 262.196C298.508 264.954 300.707 267.19 303.42 267.19Z" fill="black" />
  <path opacity="0.2" d="M479.658 141.86C483.577 141.86 486.754 138.63 486.754 134.647C486.754 130.663 483.577 127.434 479.658 127.434C475.739 127.434 472.563 130.663 472.563 134.647C472.563 138.63 475.739 141.86 479.658 141.86Z" fill="black" />
  <path opacity="0.2" d="M262.851 320.339C266.77 320.339 269.947 317.109 269.947 313.126C269.947 309.142 266.77 305.913 262.851 305.913C258.932 305.913 255.755 309.142 255.755 313.126C255.755 317.109 258.932 320.339 262.851 320.339Z" fill="black" />
  <path opacity="0.2" d="M107.164 240.441C112.267 240.441 116.405 236.236 116.405 231.048C116.405 225.86 112.267 221.654 107.164 221.654C102.06 221.654 97.9229 225.86 97.9229 231.048C97.9229 236.236 102.06 240.441 107.164 240.441Z" fill="black" />
  <path d="M228.149 375.99C212.899 375.97 197.662 375.075 182.511 373.31C136.942 368.049 94.9136 355.618 64.1696 338.308C33.0494 320.785 17.1252 300.268 19.3296 280.535C20.8568 266.864 33.8561 254.627 59.0699 243.127C59.4138 242.971 59.8047 242.96 60.1566 243.096C60.5085 243.233 60.7928 243.506 60.947 243.855C61.1012 244.205 61.1127 244.602 60.979 244.96C60.8454 245.318 60.5774 245.607 60.234 245.765C36.015 256.81 23.5593 268.291 22.155 280.861C20.0884 299.357 35.4989 318.86 65.5476 335.78C95.9723 352.911 137.625 365.219 182.832 370.438C228.039 375.657 271.346 373.156 304.775 363.397C337.791 353.758 357.111 338.264 359.177 319.768C360.575 307.255 353.795 293.988 339.57 281.4C339.286 281.148 339.111 280.792 339.085 280.41C339.059 280.027 339.184 279.65 339.431 279.361C339.679 279.072 340.029 278.894 340.406 278.868C340.782 278.841 341.153 278.968 341.437 279.22C356.4 292.46 363.511 306.595 362.003 320.094C359.798 339.827 339.753 356.192 305.56 366.174C283.297 372.674 256.724 375.99 228.149 375.99Z" fill="white" />
  <path opacity="0.1" d="M525.235 248.796C525.235 248.796 531.467 279.799 547.495 280.685C547.495 280.685 528.258 286.692 525.235 248.796Z" fill="black" />
</svg>