<svg width="232" height="455" viewBox="0 0 232 455" fill="none" xmlns="http://www.w3.org/2000/svg">
  <path d="M116.342 455C180.218 455 232 447.124 232 437.409C232 427.693 180.218 419.817 116.342 419.817C52.4654 419.817 0.68338 427.693 0.68338 437.409C0.68338 447.124 52.4654 455 116.342 455Z" fill="#E6E6E6" />
  <path d="M69.18 404.408L70.1872 413.626L61.1198 412.601V401.335L69.18 404.408Z" fill="#FFB8B8" />
  <path d="M163.89 404.408L162.882 413.626L171.951 412.601V401.335L163.89 404.408Z" fill="#FFB8B8" />
  <path d="M68.1723 205.712L64.1421 311.205C64.1421 311.205 51.0438 390.069 54.0664 392.117C57.0891 394.166 54.0664 405.432 54.0664 405.432L71.1949 407.48C71.1949 407.48 71.195 399.287 75.2252 396.214C79.2554 393.142 116.535 248.729 116.535 248.729L154.822 388.021C154.822 388.021 153.815 396.214 156.837 396.214C159.86 396.214 160.868 407.48 160.868 407.48H177.996V396.214C177.996 396.214 183.034 395.19 180.011 386.996C176.989 378.803 165.905 205.712 165.905 205.712L68.1723 205.712Z" fill="#2F2E41" />
  <path d="M63.1346 404.408C63.1346 404.408 58.0967 401.335 56.0816 403.384C54.0665 405.432 37.9456 425.916 37.9456 425.916C37.9456 425.916 15.7793 440.255 35.9305 444.352C56.0817 448.449 71.195 428.989 72.2026 426.94C73.2102 424.892 71.195 408.505 70.1874 410.553C69.1799 412.601 66.1572 411.577 65.1497 410.553C64.1421 409.529 63.1346 404.408 63.1346 404.408Z" fill="#2F2E41" />
  <path d="M169.936 404.408C169.936 404.408 174.973 401.335 176.989 403.384C179.004 405.432 195.125 425.916 195.125 425.916C195.125 425.916 217.291 440.255 197.14 444.352C176.988 448.449 161.875 428.989 160.868 426.94C159.86 424.892 161.875 408.505 162.883 410.553C163.89 412.601 166.913 411.577 167.92 410.553C168.928 409.529 169.936 404.408 169.936 404.408Z" fill="#2F2E41" />
  <path d="M129.13 54.1302C140.537 54.1302 149.784 44.7299 149.784 33.134C149.784 21.5381 140.537 12.1378 129.13 12.1378C117.722 12.1378 108.475 21.5381 108.475 33.134C108.475 44.7299 117.722 54.1302 129.13 54.1302Z" fill="#FFB8B8" />
  <path d="M115.528 44.9122L112.505 76.6626L136.686 81.7839L142.732 43.8884L115.528 44.9122Z" fill="#FFB8B8" />
  <path d="M140.716 69.4932C140.716 69.4932 134.671 82.8079 112.505 68.469L71.1951 205.712C71.1951 205.712 126.611 239.511 161.875 213.906L149.784 75.6384L140.716 69.4932Z" fill="#F9A826" />
  <path d="M116.535 54.1301L97.3915 51.0575L95.3764 64.3722C95.3764 64.3722 69.1799 67.4448 66.1572 77.6868L69.1799 153.478C69.1799 153.478 60.1118 169.865 68.1723 180.107C68.1723 180.107 55.074 207.761 65.1496 212.882C65.1496 212.882 88.3234 201.615 102.429 204.688C102.429 204.688 110.49 202.64 110.49 196.494C110.49 190.349 116.535 54.1301 116.535 54.1301Z" fill="#2F2E41" />
  <path d="M139.709 56.1786L150.792 59.2512L151.8 73.59C151.8 73.59 179.004 91.0015 180.011 101.244C181.019 111.486 159.86 160.647 159.86 160.647C159.86 160.647 167.921 174.986 164.898 184.204C164.898 184.204 177.996 210.833 169.936 218.003C169.936 218.003 154.822 222.1 152.807 215.954C150.792 209.809 132.656 139.139 140.717 105.34C140.717 105.34 132.656 62.3238 139.709 56.1786Z" fill="#2F2E41" />
  <path d="M151.296 89.5335H150.917V78.9728C150.917 78.1701 150.761 77.3753 150.459 76.6338C150.157 75.8922 149.714 75.2184 149.155 74.6508C148.597 74.0832 147.934 73.633 147.205 73.3258C146.475 73.0187 145.693 72.8605 144.904 72.8605H122.893C122.103 72.8605 121.322 73.0187 120.592 73.3258C119.863 73.633 119.2 74.0832 118.641 74.6508C118.083 75.2184 117.64 75.8922 117.338 76.6338C117.036 77.3753 116.88 78.1701 116.88 78.9728V136.91C116.88 137.712 117.036 138.507 117.338 139.249C117.64 139.99 118.083 140.664 118.641 141.232C119.2 141.799 119.863 142.249 120.592 142.556C121.322 142.864 122.103 143.022 122.893 143.022H144.904C145.693 143.022 146.475 142.864 147.205 142.556C147.934 142.249 148.597 141.799 149.155 141.232C149.714 140.664 150.157 139.99 150.459 139.249C150.761 138.507 150.917 137.712 150.917 136.91V97.0508H151.296V89.5335Z" fill="white" />
  <path d="M160.868 130.945C160.868 130.945 152.807 104.316 140.716 112.51C128.626 120.703 148.777 143.236 148.777 143.236L160.868 130.945Z" fill="#FFB8B8" />
  <path d="M105.452 111.486C105.452 111.486 119.558 94.0741 126.611 102.268C133.664 110.461 114.52 128.897 114.52 128.897L105.452 111.486Z" fill="#FFB8B8" />
  <path d="M69.1799 76.6626C69.1799 76.6626 64.1421 75.6384 61.1194 84.8563C58.0967 94.0741 47.0136 128.897 47.0136 135.042C47.0136 141.187 51.0438 165.768 73.2101 161.672C95.3763 157.575 121.573 128.897 121.573 128.897L107.467 107.389L77.2403 125.824L69.1799 76.6626Z" fill="#2F2E41" />
  <path opacity="0.1" d="M73.5333 103.215L77.7441 125.312L108.978 106.877L79.7591 118.143L73.3174 101.896L73.5333 103.215Z" fill="black" />
  <path opacity="0.1" d="M162.379 125.312L166.409 128.385L168.424 114.046L162.379 125.312Z" fill="black" />
  <path opacity="0.1" d="M68.6761 164.232C68.6761 164.232 98.2708 156.048 112.189 138.12C112.189 138.12 97.8953 162.184 68.6761 164.232Z" fill="black" />
  <path opacity="0.1" d="M143.235 145.796C143.235 145.796 149.467 176.799 165.495 177.685C165.495 177.685 146.258 183.692 143.235 145.796Z" fill="black" />
  <path d="M175.981 97.1467C175.981 97.1467 179.004 99.1951 181.019 108.413C183.034 117.631 196.132 152.454 191.094 160.647C186.057 168.841 177.996 187.277 160.868 174.986L143.739 143.236L160.868 126.849L167.921 131.97L175.981 97.1467Z" fill="#2F2E41" />
  <path d="M109.301 38.4591C109.301 38.4591 91.9779 9.92032 110.429 8.436C116.586 7.99822 122.599 6.33291 128.124 3.53499C134.24 0.371301 141.939 -2.03342 146.035 2.83668C147.823 5.06358 149.908 7.02643 152.228 8.6686C155.827 11.0947 159.991 15.0277 157.685 19.2466L153.905 26.1631L148.613 39.9961C149.846 34.0295 149.877 29.0199 146.723 26.5473C146.723 26.5473 129.13 34.1582 120.263 20.3994C110.337 12.8292 107.18 36.6567 109.301 38.4591Z" fill="#2F2E41" />
  <path d="M134.167 98.683C136.95 98.683 139.205 96.3902 139.205 93.562C139.205 90.7337 136.95 88.441 134.167 88.441C131.385 88.441 129.13 90.7337 129.13 93.562C129.13 96.3902 131.385 98.683 134.167 98.683Z" fill="#F9A826" />
</svg>