<svg width="310" height="77" viewBox="0 0 310 77" fill="none" xmlns="http://www.w3.org/2000/svg">
  <g opacity="0.5">
    <rect width="310" height="77" rx="5" fill="black" fill-opacity="0.8" />
    <g clip-path="url(#clip0)">
      <path d="M64.145 49.5421L35.731 65.8496C35.374 66.0578 34.9248 66.0462 34.5792 65.8381C34.2222 65.6299 34.0034 65.2598 34.0034 64.8434C34.0034 64.8434 34.0149 63.3399 34.0264 60.8648L54.7235 40.0814L64.145 49.5421Z" fill="url(#paint0_linear)" />
      <path d="M34.0271 60.8648C34.0617 51.9362 34.1653 30.2621 34.2114 19.4714L54.7358 40.0814L34.0271 60.8648Z" fill="url(#paint1_linear)" />
      <path d="M80.4086 40.2086L64.1457 49.5421L54.7128 40.0814L65.355 29.3947L80.4201 38.2078C80.7771 38.4159 80.996 38.7976 80.996 39.2024C80.996 39.6188 80.7656 40.0004 80.4086 40.2086Z" fill="url(#paint2_linear)" />
      <path d="M34.1999 19.4714C34.2229 15.62 34.2344 13.1565 34.2344 13.1565C34.2344 12.7402 34.4533 12.3585 34.8103 12.1619C35.1674 11.9537 35.605 11.9537 35.9621 12.1619L65.3666 29.3831L54.7243 40.0698L34.1999 19.4714Z" fill="url(#paint3_linear)" />
    </g>
    <path d="M115.008 28.502H117.672V33.614C116.988 34.13 116.196 34.526 115.296 34.802C114.396 35.078 113.49 35.216 112.578 35.216C111.27 35.216 110.094 34.94 109.05 34.388C108.006 33.824 107.184 33.05 106.584 32.066C105.996 31.07 105.702 29.948 105.702 28.7C105.702 27.452 105.996 26.336 106.584 25.352C107.184 24.356 108.012 23.582 109.068 23.03C110.124 22.466 111.312 22.184 112.632 22.184C113.736 22.184 114.738 22.37 115.638 22.742C116.538 23.114 117.294 23.654 117.906 24.362L116.034 26.09C115.134 25.142 114.048 24.668 112.776 24.668C111.972 24.668 111.258 24.836 110.634 25.172C110.01 25.508 109.524 25.982 109.176 26.594C108.828 27.206 108.654 27.908 108.654 28.7C108.654 29.48 108.828 30.176 109.176 30.788C109.524 31.4 110.004 31.88 110.616 32.228C111.24 32.564 111.948 32.732 112.74 32.732C113.58 32.732 114.336 32.552 115.008 32.192V28.502ZM129.669 30.194C129.669 30.23 129.651 30.482 129.615 30.95H122.289C122.421 31.55 122.733 32.024 123.225 32.372C123.717 32.72 124.329 32.894 125.061 32.894C125.565 32.894 126.009 32.822 126.393 32.678C126.789 32.522 127.155 32.282 127.491 31.958L128.985 33.578C128.073 34.622 126.741 35.144 124.989 35.144C123.897 35.144 122.931 34.934 122.091 34.514C121.251 34.082 120.603 33.488 120.147 32.732C119.691 31.976 119.463 31.118 119.463 30.158C119.463 29.21 119.685 28.358 120.129 27.602C120.585 26.834 121.203 26.24 121.983 25.82C122.775 25.388 123.657 25.172 124.629 25.172C125.577 25.172 126.435 25.376 127.203 25.784C127.971 26.192 128.571 26.78 129.003 27.548C129.447 28.304 129.669 29.186 129.669 30.194ZM124.647 27.296C124.011 27.296 123.477 27.476 123.045 27.836C122.613 28.196 122.349 28.688 122.253 29.312H127.023C126.927 28.7 126.663 28.214 126.231 27.854C125.799 27.482 125.271 27.296 124.647 27.296ZM137.784 34.532C137.508 34.736 137.166 34.892 136.758 35C136.362 35.096 135.942 35.144 135.498 35.144C134.346 35.144 133.452 34.85 132.816 34.262C132.192 33.674 131.88 32.81 131.88 31.67V27.692H130.386V25.532H131.88V23.174H134.688V25.532H137.1V27.692H134.688V31.634C134.688 32.042 134.79 32.36 134.994 32.588C135.21 32.804 135.51 32.912 135.894 32.912C136.338 32.912 136.716 32.792 137.028 32.552L137.784 34.532ZM144.458 25.316H147.266V35H144.458V25.316ZM145.862 23.966C145.346 23.966 144.926 23.816 144.602 23.516C144.278 23.216 144.116 22.844 144.116 22.4C144.116 21.956 144.278 21.584 144.602 21.284C144.926 20.984 145.346 20.834 145.862 20.834C146.378 20.834 146.798 20.978 147.122 21.266C147.446 21.554 147.608 21.914 147.608 22.346C147.608 22.814 147.446 23.204 147.122 23.516C146.798 23.816 146.378 23.966 145.862 23.966ZM156.118 34.532C155.842 34.736 155.5 34.892 155.092 35C154.696 35.096 154.276 35.144 153.832 35.144C152.68 35.144 151.786 34.85 151.15 34.262C150.526 33.674 150.214 32.81 150.214 31.67V27.692H148.72V25.532H150.214V23.174H153.022V25.532H155.434V27.692H153.022V31.634C153.022 32.042 153.124 32.36 153.328 32.588C153.544 32.804 153.844 32.912 154.228 32.912C154.672 32.912 155.05 32.792 155.362 32.552L156.118 34.532ZM167.4 35.144C166.38 35.144 165.462 34.934 164.646 34.514C163.842 34.082 163.212 33.488 162.756 32.732C162.3 31.976 162.072 31.118 162.072 30.158C162.072 29.198 162.3 28.34 162.756 27.584C163.212 26.828 163.842 26.24 164.646 25.82C165.462 25.388 166.38 25.172 167.4 25.172C168.42 25.172 169.332 25.388 170.136 25.82C170.94 26.24 171.57 26.828 172.026 27.584C172.482 28.34 172.71 29.198 172.71 30.158C172.71 31.118 172.482 31.976 172.026 32.732C171.57 33.488 170.94 34.082 170.136 34.514C169.332 34.934 168.42 35.144 167.4 35.144ZM167.4 32.84C168.12 32.84 168.708 32.6 169.164 32.12C169.632 31.628 169.866 30.974 169.866 30.158C169.866 29.342 169.632 28.694 169.164 28.214C168.708 27.722 168.12 27.476 167.4 27.476C166.68 27.476 166.086 27.722 165.618 28.214C165.15 28.694 164.916 29.342 164.916 30.158C164.916 30.974 165.15 31.628 165.618 32.12C166.086 32.6 166.68 32.84 167.4 32.84ZM180.473 25.172C181.673 25.172 182.639 25.532 183.371 26.252C184.115 26.972 184.487 28.04 184.487 29.456V35H181.679V29.888C181.679 29.12 181.511 28.55 181.175 28.178C180.839 27.794 180.353 27.602 179.717 27.602C179.009 27.602 178.445 27.824 178.025 28.268C177.605 28.7 177.395 29.348 177.395 30.212V35H174.587V25.316H177.269V26.45C177.641 26.042 178.103 25.73 178.655 25.514C179.207 25.286 179.813 25.172 180.473 25.172Z" fill="white" />
    <path d="M115.008 28.502H117.672V33.614C116.988 34.13 116.196 34.526 115.296 34.802C114.396 35.078 113.49 35.216 112.578 35.216C111.27 35.216 110.094 34.94 109.05 34.388C108.006 33.824 107.184 33.05 106.584 32.066C105.996 31.07 105.702 29.948 105.702 28.7C105.702 27.452 105.996 26.336 106.584 25.352C107.184 24.356 108.012 23.582 109.068 23.03C110.124 22.466 111.312 22.184 112.632 22.184C113.736 22.184 114.738 22.37 115.638 22.742C116.538 23.114 117.294 23.654 117.906 24.362L116.034 26.09C115.134 25.142 114.048 24.668 112.776 24.668C111.972 24.668 111.258 24.836 110.634 25.172C110.01 25.508 109.524 25.982 109.176 26.594C108.828 27.206 108.654 27.908 108.654 28.7C108.654 29.48 108.828 30.176 109.176 30.788C109.524 31.4 110.004 31.88 110.616 32.228C111.24 32.564 111.948 32.732 112.74 32.732C113.58 32.732 114.336 32.552 115.008 32.192V28.502ZM129.669 30.194C129.669 30.23 129.651 30.482 129.615 30.95H122.289C122.421 31.55 122.733 32.024 123.225 32.372C123.717 32.72 124.329 32.894 125.061 32.894C125.565 32.894 126.009 32.822 126.393 32.678C126.789 32.522 127.155 32.282 127.491 31.958L128.985 33.578C128.073 34.622 126.741 35.144 124.989 35.144C123.897 35.144 122.931 34.934 122.091 34.514C121.251 34.082 120.603 33.488 120.147 32.732C119.691 31.976 119.463 31.118 119.463 30.158C119.463 29.21 119.685 28.358 120.129 27.602C120.585 26.834 121.203 26.24 121.983 25.82C122.775 25.388 123.657 25.172 124.629 25.172C125.577 25.172 126.435 25.376 127.203 25.784C127.971 26.192 128.571 26.78 129.003 27.548C129.447 28.304 129.669 29.186 129.669 30.194ZM124.647 27.296C124.011 27.296 123.477 27.476 123.045 27.836C122.613 28.196 122.349 28.688 122.253 29.312H127.023C126.927 28.7 126.663 28.214 126.231 27.854C125.799 27.482 125.271 27.296 124.647 27.296ZM137.784 34.532C137.508 34.736 137.166 34.892 136.758 35C136.362 35.096 135.942 35.144 135.498 35.144C134.346 35.144 133.452 34.85 132.816 34.262C132.192 33.674 131.88 32.81 131.88 31.67V27.692H130.386V25.532H131.88V23.174H134.688V25.532H137.1V27.692H134.688V31.634C134.688 32.042 134.79 32.36 134.994 32.588C135.21 32.804 135.51 32.912 135.894 32.912C136.338 32.912 136.716 32.792 137.028 32.552L137.784 34.532ZM144.458 25.316H147.266V35H144.458V25.316ZM145.862 23.966C145.346 23.966 144.926 23.816 144.602 23.516C144.278 23.216 144.116 22.844 144.116 22.4C144.116 21.956 144.278 21.584 144.602 21.284C144.926 20.984 145.346 20.834 145.862 20.834C146.378 20.834 146.798 20.978 147.122 21.266C147.446 21.554 147.608 21.914 147.608 22.346C147.608 22.814 147.446 23.204 147.122 23.516C146.798 23.816 146.378 23.966 145.862 23.966ZM156.118 34.532C155.842 34.736 155.5 34.892 155.092 35C154.696 35.096 154.276 35.144 153.832 35.144C152.68 35.144 151.786 34.85 151.15 34.262C150.526 33.674 150.214 32.81 150.214 31.67V27.692H148.72V25.532H150.214V23.174H153.022V25.532H155.434V27.692H153.022V31.634C153.022 32.042 153.124 32.36 153.328 32.588C153.544 32.804 153.844 32.912 154.228 32.912C154.672 32.912 155.05 32.792 155.362 32.552L156.118 34.532ZM167.4 35.144C166.38 35.144 165.462 34.934 164.646 34.514C163.842 34.082 163.212 33.488 162.756 32.732C162.3 31.976 162.072 31.118 162.072 30.158C162.072 29.198 162.3 28.34 162.756 27.584C163.212 26.828 163.842 26.24 164.646 25.82C165.462 25.388 166.38 25.172 167.4 25.172C168.42 25.172 169.332 25.388 170.136 25.82C170.94 26.24 171.57 26.828 172.026 27.584C172.482 28.34 172.71 29.198 172.71 30.158C172.71 31.118 172.482 31.976 172.026 32.732C171.57 33.488 170.94 34.082 170.136 34.514C169.332 34.934 168.42 35.144 167.4 35.144ZM167.4 32.84C168.12 32.84 168.708 32.6 169.164 32.12C169.632 31.628 169.866 30.974 169.866 30.158C169.866 29.342 169.632 28.694 169.164 28.214C168.708 27.722 168.12 27.476 167.4 27.476C166.68 27.476 166.086 27.722 165.618 28.214C165.15 28.694 164.916 29.342 164.916 30.158C164.916 30.974 165.15 31.628 165.618 32.12C166.086 32.6 166.68 32.84 167.4 32.84ZM180.473 25.172C181.673 25.172 182.639 25.532 183.371 26.252C184.115 26.972 184.487 28.04 184.487 29.456V35H181.679V29.888C181.679 29.12 181.511 28.55 181.175 28.178C180.839 27.794 180.353 27.602 179.717 27.602C179.009 27.602 178.445 27.824 178.025 28.268C177.605 28.7 177.395 29.348 177.395 30.212V35H174.587V25.316H177.269V26.45C177.641 26.042 178.103 25.73 178.655 25.514C179.207 25.286 179.813 25.172 180.473 25.172Z" fill="white" />
    <path d="M115.008 28.502H117.672V33.614C116.988 34.13 116.196 34.526 115.296 34.802C114.396 35.078 113.49 35.216 112.578 35.216C111.27 35.216 110.094 34.94 109.05 34.388C108.006 33.824 107.184 33.05 106.584 32.066C105.996 31.07 105.702 29.948 105.702 28.7C105.702 27.452 105.996 26.336 106.584 25.352C107.184 24.356 108.012 23.582 109.068 23.03C110.124 22.466 111.312 22.184 112.632 22.184C113.736 22.184 114.738 22.37 115.638 22.742C116.538 23.114 117.294 23.654 117.906 24.362L116.034 26.09C115.134 25.142 114.048 24.668 112.776 24.668C111.972 24.668 111.258 24.836 110.634 25.172C110.01 25.508 109.524 25.982 109.176 26.594C108.828 27.206 108.654 27.908 108.654 28.7C108.654 29.48 108.828 30.176 109.176 30.788C109.524 31.4 110.004 31.88 110.616 32.228C111.24 32.564 111.948 32.732 112.74 32.732C113.58 32.732 114.336 32.552 115.008 32.192V28.502ZM129.669 30.194C129.669 30.23 129.651 30.482 129.615 30.95H122.289C122.421 31.55 122.733 32.024 123.225 32.372C123.717 32.72 124.329 32.894 125.061 32.894C125.565 32.894 126.009 32.822 126.393 32.678C126.789 32.522 127.155 32.282 127.491 31.958L128.985 33.578C128.073 34.622 126.741 35.144 124.989 35.144C123.897 35.144 122.931 34.934 122.091 34.514C121.251 34.082 120.603 33.488 120.147 32.732C119.691 31.976 119.463 31.118 119.463 30.158C119.463 29.21 119.685 28.358 120.129 27.602C120.585 26.834 121.203 26.24 121.983 25.82C122.775 25.388 123.657 25.172 124.629 25.172C125.577 25.172 126.435 25.376 127.203 25.784C127.971 26.192 128.571 26.78 129.003 27.548C129.447 28.304 129.669 29.186 129.669 30.194ZM124.647 27.296C124.011 27.296 123.477 27.476 123.045 27.836C122.613 28.196 122.349 28.688 122.253 29.312H127.023C126.927 28.7 126.663 28.214 126.231 27.854C125.799 27.482 125.271 27.296 124.647 27.296ZM137.784 34.532C137.508 34.736 137.166 34.892 136.758 35C136.362 35.096 135.942 35.144 135.498 35.144C134.346 35.144 133.452 34.85 132.816 34.262C132.192 33.674 131.88 32.81 131.88 31.67V27.692H130.386V25.532H131.88V23.174H134.688V25.532H137.1V27.692H134.688V31.634C134.688 32.042 134.79 32.36 134.994 32.588C135.21 32.804 135.51 32.912 135.894 32.912C136.338 32.912 136.716 32.792 137.028 32.552L137.784 34.532ZM144.458 25.316H147.266V35H144.458V25.316ZM145.862 23.966C145.346 23.966 144.926 23.816 144.602 23.516C144.278 23.216 144.116 22.844 144.116 22.4C144.116 21.956 144.278 21.584 144.602 21.284C144.926 20.984 145.346 20.834 145.862 20.834C146.378 20.834 146.798 20.978 147.122 21.266C147.446 21.554 147.608 21.914 147.608 22.346C147.608 22.814 147.446 23.204 147.122 23.516C146.798 23.816 146.378 23.966 145.862 23.966ZM156.118 34.532C155.842 34.736 155.5 34.892 155.092 35C154.696 35.096 154.276 35.144 153.832 35.144C152.68 35.144 151.786 34.85 151.15 34.262C150.526 33.674 150.214 32.81 150.214 31.67V27.692H148.72V25.532H150.214V23.174H153.022V25.532H155.434V27.692H153.022V31.634C153.022 32.042 153.124 32.36 153.328 32.588C153.544 32.804 153.844 32.912 154.228 32.912C154.672 32.912 155.05 32.792 155.362 32.552L156.118 34.532ZM167.4 35.144C166.38 35.144 165.462 34.934 164.646 34.514C163.842 34.082 163.212 33.488 162.756 32.732C162.3 31.976 162.072 31.118 162.072 30.158C162.072 29.198 162.3 28.34 162.756 27.584C163.212 26.828 163.842 26.24 164.646 25.82C165.462 25.388 166.38 25.172 167.4 25.172C168.42 25.172 169.332 25.388 170.136 25.82C170.94 26.24 171.57 26.828 172.026 27.584C172.482 28.34 172.71 29.198 172.71 30.158C172.71 31.118 172.482 31.976 172.026 32.732C171.57 33.488 170.94 34.082 170.136 34.514C169.332 34.934 168.42 35.144 167.4 35.144ZM167.4 32.84C168.12 32.84 168.708 32.6 169.164 32.12C169.632 31.628 169.866 30.974 169.866 30.158C169.866 29.342 169.632 28.694 169.164 28.214C168.708 27.722 168.12 27.476 167.4 27.476C166.68 27.476 166.086 27.722 165.618 28.214C165.15 28.694 164.916 29.342 164.916 30.158C164.916 30.974 165.15 31.628 165.618 32.12C166.086 32.6 166.68 32.84 167.4 32.84ZM180.473 25.172C181.673 25.172 182.639 25.532 183.371 26.252C184.115 26.972 184.487 28.04 184.487 29.456V35H181.679V29.888C181.679 29.12 181.511 28.55 181.175 28.178C180.839 27.794 180.353 27.602 179.717 27.602C179.009 27.602 178.445 27.824 178.025 28.268C177.605 28.7 177.395 29.348 177.395 30.212V35H174.587V25.316H177.269V26.45C177.641 26.042 178.103 25.73 178.655 25.514C179.207 25.286 179.813 25.172 180.473 25.172Z" fill="white" />
    <path d="M115.008 28.502H117.672V33.614C116.988 34.13 116.196 34.526 115.296 34.802C114.396 35.078 113.49 35.216 112.578 35.216C111.27 35.216 110.094 34.94 109.05 34.388C108.006 33.824 107.184 33.05 106.584 32.066C105.996 31.07 105.702 29.948 105.702 28.7C105.702 27.452 105.996 26.336 106.584 25.352C107.184 24.356 108.012 23.582 109.068 23.03C110.124 22.466 111.312 22.184 112.632 22.184C113.736 22.184 114.738 22.37 115.638 22.742C116.538 23.114 117.294 23.654 117.906 24.362L116.034 26.09C115.134 25.142 114.048 24.668 112.776 24.668C111.972 24.668 111.258 24.836 110.634 25.172C110.01 25.508 109.524 25.982 109.176 26.594C108.828 27.206 108.654 27.908 108.654 28.7C108.654 29.48 108.828 30.176 109.176 30.788C109.524 31.4 110.004 31.88 110.616 32.228C111.24 32.564 111.948 32.732 112.74 32.732C113.58 32.732 114.336 32.552 115.008 32.192V28.502ZM129.669 30.194C129.669 30.23 129.651 30.482 129.615 30.95H122.289C122.421 31.55 122.733 32.024 123.225 32.372C123.717 32.72 124.329 32.894 125.061 32.894C125.565 32.894 126.009 32.822 126.393 32.678C126.789 32.522 127.155 32.282 127.491 31.958L128.985 33.578C128.073 34.622 126.741 35.144 124.989 35.144C123.897 35.144 122.931 34.934 122.091 34.514C121.251 34.082 120.603 33.488 120.147 32.732C119.691 31.976 119.463 31.118 119.463 30.158C119.463 29.21 119.685 28.358 120.129 27.602C120.585 26.834 121.203 26.24 121.983 25.82C122.775 25.388 123.657 25.172 124.629 25.172C125.577 25.172 126.435 25.376 127.203 25.784C127.971 26.192 128.571 26.78 129.003 27.548C129.447 28.304 129.669 29.186 129.669 30.194ZM124.647 27.296C124.011 27.296 123.477 27.476 123.045 27.836C122.613 28.196 122.349 28.688 122.253 29.312H127.023C126.927 28.7 126.663 28.214 126.231 27.854C125.799 27.482 125.271 27.296 124.647 27.296ZM137.784 34.532C137.508 34.736 137.166 34.892 136.758 35C136.362 35.096 135.942 35.144 135.498 35.144C134.346 35.144 133.452 34.85 132.816 34.262C132.192 33.674 131.88 32.81 131.88 31.67V27.692H130.386V25.532H131.88V23.174H134.688V25.532H137.1V27.692H134.688V31.634C134.688 32.042 134.79 32.36 134.994 32.588C135.21 32.804 135.51 32.912 135.894 32.912C136.338 32.912 136.716 32.792 137.028 32.552L137.784 34.532ZM144.458 25.316H147.266V35H144.458V25.316ZM145.862 23.966C145.346 23.966 144.926 23.816 144.602 23.516C144.278 23.216 144.116 22.844 144.116 22.4C144.116 21.956 144.278 21.584 144.602 21.284C144.926 20.984 145.346 20.834 145.862 20.834C146.378 20.834 146.798 20.978 147.122 21.266C147.446 21.554 147.608 21.914 147.608 22.346C147.608 22.814 147.446 23.204 147.122 23.516C146.798 23.816 146.378 23.966 145.862 23.966ZM156.118 34.532C155.842 34.736 155.5 34.892 155.092 35C154.696 35.096 154.276 35.144 153.832 35.144C152.68 35.144 151.786 34.85 151.15 34.262C150.526 33.674 150.214 32.81 150.214 31.67V27.692H148.72V25.532H150.214V23.174H153.022V25.532H155.434V27.692H153.022V31.634C153.022 32.042 153.124 32.36 153.328 32.588C153.544 32.804 153.844 32.912 154.228 32.912C154.672 32.912 155.05 32.792 155.362 32.552L156.118 34.532ZM167.4 35.144C166.38 35.144 165.462 34.934 164.646 34.514C163.842 34.082 163.212 33.488 162.756 32.732C162.3 31.976 162.072 31.118 162.072 30.158C162.072 29.198 162.3 28.34 162.756 27.584C163.212 26.828 163.842 26.24 164.646 25.82C165.462 25.388 166.38 25.172 167.4 25.172C168.42 25.172 169.332 25.388 170.136 25.82C170.94 26.24 171.57 26.828 172.026 27.584C172.482 28.34 172.71 29.198 172.71 30.158C172.71 31.118 172.482 31.976 172.026 32.732C171.57 33.488 170.94 34.082 170.136 34.514C169.332 34.934 168.42 35.144 167.4 35.144ZM167.4 32.84C168.12 32.84 168.708 32.6 169.164 32.12C169.632 31.628 169.866 30.974 169.866 30.158C169.866 29.342 169.632 28.694 169.164 28.214C168.708 27.722 168.12 27.476 167.4 27.476C166.68 27.476 166.086 27.722 165.618 28.214C165.15 28.694 164.916 29.342 164.916 30.158C164.916 30.974 165.15 31.628 165.618 32.12C166.086 32.6 166.68 32.84 167.4 32.84ZM180.473 25.172C181.673 25.172 182.639 25.532 183.371 26.252C184.115 26.972 184.487 28.04 184.487 29.456V35H181.679V29.888C181.679 29.12 181.511 28.55 181.175 28.178C180.839 27.794 180.353 27.602 179.717 27.602C179.009 27.602 178.445 27.824 178.025 28.268C177.605 28.7 177.395 29.348 177.395 30.212V35H174.587V25.316H177.269V26.45C177.641 26.042 178.103 25.73 178.655 25.514C179.207 25.286 179.813 25.172 180.473 25.172Z" fill="white" />
    <path d="M117.16 53.504H119.464V60.056C118.632 60.744 117.664 61.272 116.56 61.64C115.456 62.008 114.304 62.192 113.104 62.192C111.408 62.192 109.88 61.824 108.52 61.088C107.16 60.336 106.088 59.312 105.304 58.016C104.536 56.704 104.152 55.232 104.152 53.6C104.152 51.968 104.536 50.496 105.304 49.184C106.088 47.872 107.16 46.848 108.52 46.112C109.896 45.376 111.44 45.008 113.152 45.008C114.496 45.008 115.712 45.232 116.8 45.68C117.904 46.112 118.84 46.752 119.608 47.6L118.12 49.088C116.776 47.792 115.152 47.144 113.248 47.144C111.968 47.144 110.816 47.424 109.792 47.984C108.784 48.528 107.992 49.296 107.416 50.288C106.84 51.264 106.552 52.368 106.552 53.6C106.552 54.816 106.84 55.92 107.416 56.912C107.992 57.888 108.784 58.656 109.792 59.216C110.816 59.776 111.96 60.056 113.224 60.056C114.728 60.056 116.04 59.696 117.16 58.976V53.504ZM129.171 62.144C127.907 62.144 126.771 61.864 125.763 61.304C124.755 60.744 123.963 59.976 123.387 59C122.827 58.008 122.547 56.888 122.547 55.64C122.547 54.392 122.827 53.28 123.387 52.304C123.963 51.312 124.755 50.544 125.763 50C126.771 49.44 127.907 49.16 129.171 49.16C130.435 49.16 131.563 49.44 132.555 50C133.563 50.544 134.347 51.312 134.907 52.304C135.483 53.28 135.771 54.392 135.771 55.64C135.771 56.888 135.483 58.008 134.907 59C134.347 59.976 133.563 60.744 132.555 61.304C131.563 61.864 130.435 62.144 129.171 62.144ZM129.171 60.128C129.987 60.128 130.715 59.944 131.355 59.576C132.011 59.192 132.523 58.664 132.891 57.992C133.259 57.304 133.443 56.52 133.443 55.64C133.443 54.76 133.259 53.984 132.891 53.312C132.523 52.624 132.011 52.096 131.355 51.728C130.715 51.36 129.987 51.176 129.171 51.176C128.355 51.176 127.619 51.36 126.963 51.728C126.323 52.096 125.811 52.624 125.427 53.312C125.059 53.984 124.875 54.76 124.875 55.64C124.875 56.52 125.059 57.304 125.427 57.992C125.811 58.664 126.323 59.192 126.963 59.576C127.619 59.944 128.355 60.128 129.171 60.128ZM144.405 62.144C143.141 62.144 142.005 61.864 140.997 61.304C139.989 60.744 139.197 59.976 138.621 59C138.061 58.008 137.781 56.888 137.781 55.64C137.781 54.392 138.061 53.28 138.621 52.304C139.197 51.312 139.989 50.544 140.997 50C142.005 49.44 143.141 49.16 144.405 49.16C145.669 49.16 146.797 49.44 147.789 50C148.797 50.544 149.581 51.312 150.141 52.304C150.717 53.28 151.005 54.392 151.005 55.64C151.005 56.888 150.717 58.008 150.141 59C149.581 59.976 148.797 60.744 147.789 61.304C146.797 61.864 145.669 62.144 144.405 62.144ZM144.405 60.128C145.221 60.128 145.949 59.944 146.589 59.576C147.245 59.192 147.757 58.664 148.125 57.992C148.493 57.304 148.677 56.52 148.677 55.64C148.677 54.76 148.493 53.984 148.125 53.312C147.757 52.624 147.245 52.096 146.589 51.728C145.949 51.36 145.221 51.176 144.405 51.176C143.589 51.176 142.853 51.36 142.197 51.728C141.557 52.096 141.045 52.624 140.661 53.312C140.293 53.984 140.109 54.76 140.109 55.64C140.109 56.52 140.293 57.304 140.661 57.992C141.045 58.664 141.557 59.192 142.197 59.576C142.853 59.944 143.589 60.128 144.405 60.128ZM166.36 49.28V60.272C166.36 62.496 165.808 64.136 164.704 65.192C163.6 66.264 161.952 66.8 159.76 66.8C158.56 66.8 157.416 66.632 156.328 66.296C155.24 65.976 154.36 65.512 153.688 64.904L154.792 63.128C155.384 63.64 156.112 64.04 156.976 64.328C157.856 64.632 158.76 64.784 159.688 64.784C161.176 64.784 162.272 64.432 162.976 63.728C163.696 63.024 164.056 61.952 164.056 60.512V59.504C163.512 60.16 162.84 60.656 162.04 60.992C161.256 61.312 160.4 61.472 159.472 61.472C158.256 61.472 157.152 61.216 156.16 60.704C155.184 60.176 154.416 59.448 153.856 58.52C153.296 57.576 153.016 56.504 153.016 55.304C153.016 54.104 153.296 53.04 153.856 52.112C154.416 51.168 155.184 50.44 156.16 49.928C157.152 49.416 158.256 49.16 159.472 49.16C160.432 49.16 161.32 49.336 162.136 49.688C162.968 50.04 163.648 50.56 164.176 51.248V49.28H166.36ZM159.736 59.456C160.568 59.456 161.312 59.28 161.968 58.928C162.64 58.576 163.16 58.088 163.528 57.464C163.912 56.824 164.104 56.104 164.104 55.304C164.104 54.072 163.696 53.08 162.88 52.328C162.064 51.56 161.016 51.176 159.736 51.176C158.44 51.176 157.384 51.56 156.568 52.328C155.752 53.08 155.344 54.072 155.344 55.304C155.344 56.104 155.528 56.824 155.896 57.464C156.28 58.088 156.8 58.576 157.456 58.928C158.128 59.28 158.888 59.456 159.736 59.456ZM170.762 44.192H173.066V62H170.762V44.192ZM188.961 55.712C188.961 55.888 188.945 56.12 188.913 56.408H178.593C178.737 57.528 179.225 58.432 180.057 59.12C180.905 59.792 181.953 60.128 183.201 60.128C184.721 60.128 185.945 59.616 186.873 58.592L188.145 60.08C187.569 60.752 186.849 61.264 185.985 61.616C185.137 61.968 184.185 62.144 183.129 62.144C181.785 62.144 180.593 61.872 179.553 61.328C178.513 60.768 177.705 59.992 177.129 59C176.569 58.008 176.289 56.888 176.289 55.64C176.289 54.408 176.561 53.296 177.105 52.304C177.665 51.312 178.425 50.544 179.385 50C180.361 49.44 181.457 49.16 182.673 49.16C183.889 49.16 184.969 49.44 185.913 50C186.873 50.544 187.617 51.312 188.145 52.304C188.689 53.296 188.961 54.432 188.961 55.712ZM182.673 51.104C181.569 51.104 180.641 51.44 179.889 52.112C179.153 52.784 178.721 53.664 178.593 54.752H186.753C186.625 53.68 186.185 52.808 185.433 52.136C184.697 51.448 183.777 51.104 182.673 51.104ZM205.494 45.2C207.67 45.2 209.382 45.72 210.63 46.76C211.878 47.8 212.502 49.232 212.502 51.056C212.502 52.88 211.878 54.312 210.63 55.352C209.382 56.392 207.67 56.912 205.494 56.912H201.342V62H198.942V45.2H205.494ZM205.422 54.824C206.942 54.824 208.102 54.504 208.902 53.864C209.702 53.208 210.102 52.272 210.102 51.056C210.102 49.84 209.702 48.912 208.902 48.272C208.102 47.616 206.942 47.288 205.422 47.288H201.342V54.824H205.422ZM215.926 44.192H218.23V62H215.926V44.192ZM227.261 49.16C229.021 49.16 230.365 49.592 231.293 50.456C232.237 51.32 232.709 52.608 232.709 54.32V62H230.525V60.32C230.141 60.912 229.589 61.368 228.869 61.688C228.165 61.992 227.325 62.144 226.349 62.144C224.925 62.144 223.781 61.8 222.917 61.112C222.069 60.424 221.645 59.52 221.645 58.4C221.645 57.28 222.053 56.384 222.869 55.712C223.685 55.024 224.981 54.68 226.757 54.68H230.405V54.224C230.405 53.232 230.117 52.472 229.541 51.944C228.965 51.416 228.117 51.152 226.997 51.152C226.245 51.152 225.509 51.28 224.789 51.536C224.069 51.776 223.461 52.104 222.965 52.52L222.005 50.792C222.661 50.264 223.445 49.864 224.357 49.592C225.269 49.304 226.237 49.16 227.261 49.16ZM226.733 60.368C227.613 60.368 228.373 60.176 229.013 59.792C229.653 59.392 230.117 58.832 230.405 58.112V56.336H226.853C224.901 56.336 223.925 56.992 223.925 58.304C223.925 58.944 224.173 59.448 224.669 59.816C225.165 60.184 225.853 60.368 226.733 60.368ZM247.995 49.28L241.827 63.272C241.283 64.568 240.643 65.48 239.907 66.008C239.187 66.536 238.315 66.8 237.291 66.8C236.667 66.8 236.059 66.696 235.467 66.488C234.891 66.296 234.411 66.008 234.027 65.624L235.011 63.896C235.667 64.52 236.427 64.832 237.291 64.832C237.851 64.832 238.315 64.68 238.683 64.376C239.067 64.088 239.411 63.584 239.715 62.864L240.123 61.976L234.507 49.28H236.907L241.347 59.456L245.739 49.28H247.995Z" fill="white" />
  </g>
  <defs>
    <linearGradient id="paint0_linear" x1="34.0034" y1="53.0356" x2="64.1503" y2="53.0356" gradientUnits="userSpaceOnUse">
      <stop stop-color="#63BE6B" />
      <stop offset="0.506" stop-color="#5BBC6A" />
      <stop offset="1" stop-color="#4AB96A" />
    </linearGradient>
    <linearGradient id="paint1_linear" x1="34.0216" y1="40.1631" x2="54.7238" y2="40.1631" gradientUnits="userSpaceOnUse">
      <stop stop-color="#3EC6F2" />
      <stop offset="1" stop-color="#45AFE3" />
    </linearGradient>
    <linearGradient id="paint2_linear" x1="54.7238" y1="39.461" x2="80.9932" y2="39.461" gradientUnits="userSpaceOnUse">
      <stop stop-color="#FAA51A" />
      <stop offset="0.387" stop-color="#FAB716" />
      <stop offset="0.741" stop-color="#FAC412" />
      <stop offset="1" stop-color="#FAC80F" />
    </linearGradient>
    <linearGradient id="paint3_linear" x1="34.205" y1="26.0382" x2="65.3661" y2="26.0382" gradientUnits="userSpaceOnUse">
      <stop stop-color="#EC3B50" />
      <stop offset="1" stop-color="#E7515B" />
    </linearGradient>
    <clipPath id="clip0">
      <rect width="47" height="54" transform="matrix(1 0 0 -1 34 66)" fill="white" />
    </clipPath>
  </defs>
</svg>