<?xml version="1.0" encoding="UTF-8" ?>
<svg xmlns="http://www.w3.org/2000/svg" xmlns:xlink="http://www.w3.org/1999/xlink" version="1.1" id="Layer_1" viewBox="0 0 512 512" xml:space="preserve">
  <style type="text/css">.st0{fill:none;}</style>
  <g id="XMLID_144_">
    <path id="XMLID_417_" class="st0" d="M265.2 54.1c-3-5.6-7.7-9.1-12.9-9.1h-.1c-5.2 0-9.9 3.6-12.8 9.3L43 440.6c-4.4 8.6-2.4 17.5.9 22.8 1.8 2.9 5.7 7.9 12.2 7.9l402 .6c6.5 0 10.4-5 12.1-7.9 3.3-5.4 5.1-14.5.5-23.2L265.2 54.1zM234 161c0-11 9-20 20-20s20 9 20 20v140c0 11-9 20-20 20s-20-9-20-20V161zm20 259.3c-16 0-28.9-12.9-28.9-28.9 0-16 12.9-28.9 28.9-28.9s28.9 12.9 28.9 28.9c0 16-12.9 28.9-28.9 28.9z" fill="none" />
    <path id="XMLID_419_" d="M254 321c11 0 20-9 20-20V161c0-11-9-20-20-20s-20 9-20 20v140c0 11 9 20 20 20z" />
    <circle id="XMLID_420_" cx="254" cy="391.4" r="28.9" />
    <path id="XMLID_423_" d="M506 422.2L300.5 35.5c-10-18.9-28-30.1-48.2-30.1h-.5c-20.3.2-38.3 11.7-48.1 30.9L7.3 422.6c-9.9 19.5-9 43.2 2.4 61.8 10.3 16.8 27.6 27 46.3 27l402 .6h.1c18.9 0 36.2-10.3 46.4-27.3 11.3-18.9 11.9-42.9 1.5-62.5zm-35.8 41.9c-1.7 2.9-5.6 7.9-12.1 7.9l-402-.6c-6.5 0-10.4-4.9-12.2-7.8-3.3-5.4-5.2-14.2-.9-22.8L239.5 54.3c2.9-5.7 7.6-9.3 12.8-9.3h.1c5.2 0 9.9 3.4 12.9 9.1L470.7 441c4.6 8.6 2.7 17.7-.5 23.1z" />
  </g>
</svg>